<svg width="33" height="32" viewBox="0 0 33 32" fill="none" xmlns="http://www.w3.org/2000/svg">
<rect x="0.5" width="32" height="32" rx="16" fill="#ECF7FF"/>
<path fill-rule="evenodd" clip-rule="evenodd" d="M16.5 15.9999C14.294 15.9999 12.5 14.2059 12.5 11.9999C12.5 9.79393 14.294 7.99993 16.5 7.99993C18.706 7.99993 20.5 9.79393 20.5 11.9999C20.5 14.2059 18.706 15.9999 16.5 15.9999ZM20.258 16.6729C20.9582 16.1119 21.5232 15.4007 21.9113 14.5918C22.2994 13.783 22.5006 12.8971 22.5 11.9999C22.5007 10.9855 22.2442 9.98746 21.7545 9.09905C21.2647 8.21064 20.5577 7.46082 19.6996 6.91985C18.8414 6.37888 17.8601 6.06439 16.8473 6.00567C15.8346 5.94694 14.8235 6.146 13.9085 6.58416C12.9936 7.02232 12.2046 7.68531 11.6155 8.51116C11.0264 9.33701 10.6562 10.2987 10.5397 11.3064C10.4232 12.3142 10.5641 13.335 10.9492 14.2735C11.3344 15.212 11.9512 16.0375 12.742 16.6729C9.35592 17.9453 6.8913 20.9494 6.54248 25.0004C6.4951 25.5506 6.94772 25.9999 7.5 25.9999C8.05228 25.9999 8.49393 25.5502 8.54965 25.0007C8.99564 20.6029 12.3912 17.9999 16.5 17.9999C20.6088 17.9999 24.0044 20.6029 24.4503 25.0007C24.5061 25.5502 24.9477 25.9999 25.5 25.9999C26.0523 25.9999 26.5049 25.5506 26.4575 25.0004C26.1087 20.9494 23.6441 17.9453 20.258 16.6729Z" fill="#050F67"/>
</svg>
