<svg width="25" height="24" viewBox="0 0 25 24" fill="none" xmlns="http://www.w3.org/2000/svg">
<path fill-rule="evenodd" clip-rule="evenodd" d="M12.5 11.9999C10.294 11.9999 8.5 10.2059 8.5 7.99993C8.5 5.79393 10.294 3.99993 12.5 3.99993C14.706 3.99993 16.5 5.79393 16.5 7.99993C16.5 10.2059 14.706 11.9999 12.5 11.9999ZM16.258 12.6729C16.9582 12.1119 17.5232 11.4007 17.9113 10.5918C18.2994 9.78296 18.5006 8.8971 18.5 7.99993C18.5007 6.98548 18.2442 5.98746 17.7545 5.09905C17.2647 4.21064 16.5577 3.46082 15.6996 2.91985C14.8414 2.37888 13.8601 2.06439 12.8473 2.00567C11.8346 1.94694 10.8235 2.146 9.90851 2.58416C8.99356 3.02232 8.20465 3.68531 7.61551 4.51116C7.02637 5.33701 6.65622 6.29871 6.5397 7.30645C6.42319 8.31419 6.56408 9.33499 6.94922 10.2735C7.33436 11.212 7.95118 12.0375 8.742 12.6729C5.35592 13.9453 2.8913 16.9494 2.54248 21.0004C2.4951 21.5506 2.94772 21.9999 3.5 21.9999C4.05228 21.9999 4.49393 21.5502 4.54965 21.0007C4.99564 16.6029 8.39121 13.9999 12.5 13.9999C16.6088 13.9999 20.0044 16.6029 20.4503 21.0007C20.5061 21.5502 20.9477 21.9999 21.5 21.9999C22.0523 21.9999 22.5049 21.5506 22.4575 21.0004C22.1087 16.9494 19.6441 13.9453 16.258 12.6729Z" fill="#A1A2B4"/>
</svg>
