<svg width="20" height="21" viewBox="0 0 20 21" fill="none"
    xmlns="http://www.w3.org/2000/svg">
    <path d="M10.7162 10.2924C10.5293 10.1092 10.2779 10.0066 10.0162 10.0066C9.75443 10.0066 9.50311 10.1092 9.31618 10.2924L6.31618 13.1924C6.21007 13.28 6.12317 13.3885 6.06091 13.5112C5.99865 13.6339 5.96237 13.7681 5.95434 13.9054C5.94631 14.0427 5.96671 14.1803 6.01425 14.3094C6.06179 14.4384 6.13546 14.5563 6.23065 14.6557C6.32583 14.755 6.44049 14.8336 6.56745 14.8866C6.6944 14.9396 6.83092 14.9658 6.96848 14.9636C7.10603 14.9615 7.24166 14.9309 7.36687 14.8739C7.49208 14.8169 7.60419 14.7347 7.69618 14.6324L9.00618 13.3624V19.0024C9.00618 19.2677 9.11154 19.522 9.29907 19.7096C9.48661 19.8971 9.74096 20.0024 10.0062 20.0024C10.2714 20.0024 10.5258 19.8971 10.7133 19.7096C10.9008 19.522 11.0062 19.2677 11.0062 19.0024V13.4124L12.2962 14.7124C12.3891 14.8062 12.4997 14.8806 12.6216 14.9313C12.7435 14.9821 12.8742 15.0082 13.0062 15.0082C13.1382 15.0082 13.2689 14.9821 13.3908 14.9313C13.5126 14.8806 13.6232 14.8062 13.7162 14.7124C13.8099 14.6195 13.8843 14.5089 13.9351 14.387C13.9858 14.2652 14.012 14.1345 14.012 14.0024C14.012 13.8704 13.9858 13.7397 13.9351 13.6179C13.8843 13.496 13.8099 13.3854 13.7162 13.2924L10.7162 10.2924Z" fill="#A1A2B4"/>
    <path d="M15.6287 4.03758C15.2219 2.85863 14.4589 1.8362 13.4457 1.11254C12.4326 0.388884 11.2197 0 9.97592 0C8.73214 0 7.51929 0.388884 6.50613 1.11254C5.49298 1.8362 4.72991 2.85863 4.3231 4.03758C3.42738 4.15791 2.58112 4.52023 1.87484 5.08577C1.16857 5.65131 0.628867 6.3988 0.313456 7.24827C-0.00195408 8.09774 -0.0812004 9.01724 0.0841943 9.9084C0.249589 10.7996 0.653402 11.6289 1.25244 12.3076C1.3248 12.4354 1.42437 12.5457 1.54406 12.6305C1.66375 12.7154 1.80062 12.7727 1.94492 12.7984C2.08922 12.8242 2.2374 12.8177 2.37891 12.7794C2.52043 12.7411 2.65179 12.6721 2.76364 12.5771C2.8755 12.4821 2.9651 12.3635 3.02606 12.2298C3.08702 12.0961 3.11785 11.9506 3.11635 11.8036C3.11484 11.6566 3.08105 11.5117 3.01736 11.3793C2.95367 11.2469 2.86167 11.1302 2.74789 11.0376C2.36218 10.605 2.10982 10.0696 2.02139 9.49607C1.93296 8.92257 2.01226 8.33566 2.24968 7.80645C2.4871 7.27725 2.87245 6.82847 3.35903 6.51451C3.8456 6.20055 4.41252 6.03488 4.99107 6.03758H5.09077C5.32401 6.0423 5.55151 5.96482 5.73368 5.81865C5.91584 5.67247 6.04113 5.46685 6.08774 5.23758C6.2708 4.33335 6.75988 3.5204 7.47213 2.93648C8.18437 2.35255 9.07597 2.03357 9.99586 2.03357C10.9158 2.03357 11.8074 2.35255 12.5196 2.93648C13.2318 3.5204 13.7209 4.33335 13.904 5.23758C13.9506 5.46685 14.0759 5.67247 14.2581 5.81865C14.4402 5.96482 14.6677 6.0423 14.901 6.03758H14.9608C15.5393 6.03488 16.1062 6.20055 16.5928 6.51451C17.0794 6.82847 17.4647 7.27725 17.7022 7.80645C17.9396 8.33566 18.0189 8.92257 17.9305 9.49607C17.842 10.0696 17.5897 10.605 17.204 11.0376C17.1161 11.1364 17.0487 11.2516 17.0057 11.3768C16.9626 11.5019 16.9447 11.6343 16.9531 11.7664C16.9614 11.8985 16.9958 12.0276 17.0543 12.1462C17.1128 12.2649 17.1941 12.3707 17.2937 12.4576C17.4754 12.6184 17.7093 12.7072 17.9517 12.7076C18.0932 12.7074 18.2331 12.677 18.3621 12.6184C18.491 12.5597 18.606 12.4742 18.6994 12.3676C19.3151 11.69 19.7331 10.8557 19.908 9.95592C20.0828 9.0561 20.0076 8.1254 19.6906 7.26555C19.3737 6.4057 18.8271 5.64981 18.1108 5.08051C17.3944 4.51121 16.5358 4.15042 15.6287 4.03758Z" 
    fill="#A1A2B4"/>
</svg>
