<svg width="24" height="24" viewBox="0 0 24 24" fill="none" xmlns="http://www.w3.org/2000/svg">
<path d="M4 6.59998H5.8H20.2" stroke="#A1A2B4" stroke-width="0.9" stroke-linecap="round" stroke-linejoin="round"/>
<path d="M18.3998 6.6V19.2C18.3998 19.6774 18.2102 20.1352 17.8726 20.4728C17.535 20.8104 17.0772 21 16.5998 21H7.5998C7.12242 21 6.66458 20.8104 6.32701 20.4728C5.98945 20.1352 5.7998 19.6774 5.7998 19.2V6.6M8.4998 6.6V4.8C8.4998 4.32261 8.68945 3.86477 9.02701 3.52721C9.36458 3.18964 9.82242 3 10.2998 3H13.8998C14.3772 3 14.835 3.18964 15.1726 3.52721C15.5102 3.86477 15.6998 4.32261 15.6998 4.8V6.6" stroke="#A1A2B4" stroke-width="0.9" stroke-linecap="round" stroke-linejoin="round"/>
<path d="M10.2998 11.1V16.5" stroke="#A1A2B4" stroke-width="0.9" stroke-linecap="round" stroke-linejoin="round"/>
<path d="M13.8999 11.1V16.5" stroke="#A1A2B4" stroke-width="0.9" stroke-linecap="round" stroke-linejoin="round"/>
</svg>
