<svg width="20" height="20" viewBox="0 0 20 20" fill="none" xmlns="http://www.w3.org/2000/svg">
<path fill-rule="evenodd" clip-rule="evenodd" d="M3 1.5C2.17157 1.5 1.5 2.17157 1.5 3V17C1.5 17.7625 2.06891 18.3921 2.8054 18.4875L13.6462 7.64635C13.74 7.55258 13.8672 7.4999 13.9998 7.4999C14.1324 7.4999 14.2596 7.55258 14.3534 7.64635L18.5 11.793V3C18.5 2.17157 17.8284 1.5 17 1.5H3ZM18.5 13.2072L13.9998 8.70701L4.20708 18.5H17C17.8284 18.5 18.5 17.8284 18.5 17V13.2072ZM0.5 3C0.5 1.61929 1.61929 0.5 3 0.5H17C18.3807 0.5 19.5 1.61929 19.5 3V17C19.5 18.3807 18.3807 19.5 17 19.5H3C1.61929 19.5 0.5 18.3807 0.5 17V3ZM6.5002 5.4999C5.94791 5.4999 5.5002 5.94762 5.5002 6.4999C5.5002 7.05219 5.94791 7.4999 6.5002 7.4999C7.05248 7.4999 7.5002 7.05219 7.5002 6.4999C7.5002 5.94762 7.05248 5.4999 6.5002 5.4999ZM4.5002 6.4999C4.5002 5.39533 5.39563 4.4999 6.5002 4.4999C7.60476 4.4999 8.5002 5.39533 8.5002 6.4999C8.5002 7.60447 7.60476 8.4999 6.5002 8.4999C5.39563 8.4999 4.5002 7.60447 4.5002 6.4999Z" fill="white"/>
</svg>
