<svg width="40" height="40" viewBox="0 0 40 40" fill="none" xmlns="http://www.w3.org/2000/svg">
<rect width="40" height="40" rx="20" fill="#374199"/>
<path d="M22.0005 10.0002H14.0005C13.4701 10.0002 12.9613 10.211 12.5863 10.586C12.2112 10.9611 12.0005 11.4698 12.0005 12.0002V28.0002C12.0005 28.5307 12.2112 29.0394 12.5863 29.4145C12.9613 29.7895 13.4701 30.0002 14.0005 30.0002H26.0005C26.5309 30.0002 27.0396 29.7895 27.4147 29.4145C27.7898 29.0394 28.0005 28.5307 28.0005 28.0002V16.0002L22.0005 10.0002Z" stroke="white" stroke-linecap="round" stroke-linejoin="round"/>
<path d="M21.9995 10.0002V16.0002H27.9995" stroke="white" stroke-width="1.2" stroke-linecap="round" stroke-linejoin="round"/>
<path d="M23.9995 20.9998H15.9995" stroke="white" stroke-linecap="round" stroke-linejoin="round"/>
<path d="M23.9995 25.0002H15.9995" stroke="white" stroke-linecap="round" stroke-linejoin="round"/>
<path d="M17.9995 17H16.9995H15.9995" stroke="white" stroke-linecap="round" stroke-linejoin="round"/>
</svg>
