<svg width="24" height="24" viewBox="0 0 24 24" fill="none" xmlns="http://www.w3.org/2000/svg">
<path d="M8 18V5L20 3V16" stroke="white" stroke-linecap="round" stroke-linejoin="round"/>
<path d="M5 21C6.65685 21 8 19.6569 8 18C8 16.3431 6.65685 15 5 15C3.34315 15 2 16.3431 2 18C2 19.6569 3.34315 21 5 21Z" stroke="white" stroke-linecap="round" stroke-linejoin="round"/>
<path d="M17 19C18.6569 19 20 17.6569 20 16C20 14.3431 18.6569 13 17 13C15.3431 13 14 14.3431 14 16C14 17.6569 15.3431 19 17 19Z" stroke="white" stroke-linecap="round" stroke-linejoin="round"/>
</svg>
