<svg width="25" height="24" viewBox="0 0 25 24" fill="none" xmlns="http://www.w3.org/2000/svg">
<path d="M19.1335 6.52633H13.4815L13.1935 5.68423C13.0068 5.19011 12.6605 4.76255 12.2025 4.46079C11.7445 4.15902 11.1976 3.998 10.6375 4.00002H6.5335C5.81741 4.00002 5.13066 4.26618 4.62431 4.73996C4.11796 5.21373 3.8335 5.85631 3.8335 6.52633V17.4737C3.8335 18.1437 4.11796 18.7863 4.62431 19.2601C5.13066 19.7338 5.81741 20 6.5335 20H19.1335C19.8496 20 20.5363 19.7338 21.0427 19.2601C21.549 18.7863 21.8335 18.1437 21.8335 17.4737V9.05264C21.8335 8.38262 21.549 7.74005 21.0427 7.26627C20.5363 6.7925 19.8496 6.52633 19.1335 6.52633ZM20.0335 17.4737C20.0335 17.697 19.9387 17.9112 19.7699 18.0691C19.6011 18.2271 19.3722 18.3158 19.1335 18.3158H6.5335C6.2948 18.3158 6.06588 18.2271 5.8971 18.0691C5.72832 17.9112 5.6335 17.697 5.6335 17.4737V6.52633C5.6335 6.30299 5.72832 6.0888 5.8971 5.93087C6.06588 5.77295 6.2948 5.68423 6.5335 5.68423H10.6375C10.8262 5.68377 11.0102 5.73881 11.1637 5.84157C11.3171 5.94432 11.4321 6.0896 11.4925 6.25686L11.9785 7.63791C12.0389 7.80517 12.1539 7.95044 12.3073 8.0532C12.4608 8.15596 12.6448 8.211 12.8335 8.21054H19.1335C19.3722 8.21054 19.6011 8.29926 19.7699 8.45719C19.9387 8.61511 20.0335 8.8293 20.0335 9.05264V17.4737Z" fill="#A1A2B4"/>
</svg>
