<svg width="24" height="24" viewBox="0 0 24 24" fill="none" xmlns="http://www.w3.org/2000/svg">
<path d="M14 2.00012H6C5.46957 2.00012 4.96086 2.21084 4.58579 2.58591C4.21071 2.96098 4 3.46969 4 4.00012V20.0001C4 20.5306 4.21071 21.0393 4.58579 21.4143C4.96086 21.7894 5.46957 22.0001 6 22.0001H18C18.5304 22.0001 19.0391 21.7894 19.4142 21.4143C19.7893 21.0393 20 20.5306 20 20.0001V8.00012L14 2.00012Z" stroke="white" stroke-linecap="round" stroke-linejoin="round"/>
<path d="M14 2.00012V8.00012H20" stroke="white" stroke-width="1.2" stroke-linecap="round" stroke-linejoin="round"/>
<path d="M12.1312 12.7595L12.1396 12.7201C12.3028 12.0479 12.5081 11.2098 12.3478 10.4504C12.2409 9.85136 11.7993 9.61792 11.4224 9.60105C10.9781 9.58136 10.5815 9.83449 10.4831 10.2029C10.2974 10.8779 10.4634 11.8004 10.7671 12.976C10.3846 13.8873 9.77432 15.212 9.32713 15.9995C8.49463 16.4298 7.37807 17.0935 7.21213 17.9317C7.17838 18.0864 7.21776 18.2832 7.31057 18.4604C7.41463 18.6573 7.58057 18.8092 7.77463 18.8823C7.85901 18.9132 7.96026 18.9385 8.07838 18.9385C8.57338 18.9385 9.37494 18.5392 10.4437 16.7054C10.6068 16.652 10.7756 16.5957 10.9387 16.5395C11.7037 16.2807 12.4968 16.0107 13.214 15.8898C14.0071 16.3145 14.9099 16.5873 15.5231 16.5873C16.1306 16.5873 16.3696 16.2273 16.4596 16.0107C16.6171 15.631 16.5412 15.1529 16.2853 14.897C15.914 14.5314 15.0112 14.4357 13.6049 14.6101C12.9131 14.1882 12.4603 13.6145 12.1312 12.7595ZM9.04588 17.0317C8.65495 17.5998 8.35963 17.8839 8.19932 18.0076C8.38776 17.6617 8.7562 17.296 9.04588 17.0317ZM11.5096 10.4082C11.6559 10.6585 11.6362 11.4151 11.5237 11.7976C11.3859 11.2379 11.3662 10.4448 11.4478 10.352C11.4703 10.3548 11.4899 10.3717 11.5096 10.4082ZM11.4646 13.7973C11.7656 14.3176 12.1453 14.7648 12.5643 15.0967C11.9568 15.2345 11.4028 15.4623 10.9078 15.6648C10.7896 15.7126 10.6743 15.7604 10.5618 15.8054C10.9359 15.1276 11.2481 14.3598 11.4646 13.7973ZM15.8409 15.6395C15.8437 15.6451 15.8465 15.6535 15.8296 15.6648H15.824L15.8184 15.6732C15.7959 15.6873 15.5653 15.8223 14.5724 15.4314C15.7143 15.3779 15.8381 15.6367 15.8409 15.6395Z" fill="white"/>
</svg>
