<svg width="33" height="32" viewBox="0 0 33 32" fill="none" xmlns="http://www.w3.org/2000/svg">
<rect x="0.833496" width="32" height="32" rx="16" fill="#ECF7FF"/>
<path d="M23.1335 10.5263H17.4815L17.1935 9.68423C17.0068 9.19011 16.6605 8.76255 16.2025 8.46079C15.7445 8.15902 15.1976 7.998 14.6375 8.00002H10.5335C9.81741 8.00002 9.13066 8.26618 8.62431 8.73996C8.11796 9.21373 7.8335 9.85631 7.8335 10.5263V21.4737C7.8335 22.1437 8.11796 22.7863 8.62431 23.2601C9.13066 23.7338 9.81741 24 10.5335 24H23.1335C23.8496 24 24.5363 23.7338 25.0427 23.2601C25.549 22.7863 25.8335 22.1437 25.8335 21.4737V13.0526C25.8335 12.3826 25.549 11.74 25.0427 11.2663C24.5363 10.7925 23.8496 10.5263 23.1335 10.5263ZM24.0335 21.4737C24.0335 21.697 23.9387 21.9112 23.7699 22.0691C23.6011 22.2271 23.3722 22.3158 23.1335 22.3158H10.5335C10.2948 22.3158 10.0659 22.2271 9.8971 22.0691C9.72832 21.9112 9.6335 21.697 9.6335 21.4737V10.5263C9.6335 10.303 9.72832 10.0888 9.8971 9.93087C10.0659 9.77295 10.2948 9.68423 10.5335 9.68423H14.6375C14.8262 9.68377 15.0102 9.73881 15.1637 9.84157C15.3171 9.94432 15.4321 10.0896 15.4925 10.2569L15.9785 11.6379C16.0389 11.8052 16.1539 11.9504 16.3073 12.0532C16.4608 12.156 16.6448 12.211 16.8335 12.2105H23.1335C23.3722 12.2105 23.6011 12.2993 23.7699 12.4572C23.9387 12.6151 24.0335 12.8293 24.0335 13.0526V21.4737Z" fill="#050F67"/>
</svg>
