<svg width="88" height="81" viewBox="0 0 88 81" fill="none" xmlns="http://www.w3.org/2000/svg">
<path d="M18.8092 43.5124C16.3392 43.5124 13.8933 43.9972 11.6112 44.9392C9.3292 45.8812 7.25569 47.2618 5.50909 49.0023C3.76249 50.7429 2.37702 52.8092 1.43177 55.0833C0.486514 57.3574 -1.03812e-06 59.7947 -8.22178e-07 62.2562C-6.06238e-07 64.7177 0.486515 67.155 1.43177 69.4291C2.37702 71.7032 3.7625 73.7695 5.50909 75.5101C7.25569 77.2506 9.32921 78.6313 11.6112 79.5732C13.8933 80.5152 16.3392 81 18.8092 81L18.8092 62.2562L18.8092 43.5124Z" fill="white"/>
<path d="M69.1908 38.157C71.6608 38.157 74.1067 37.6722 76.3888 36.7302C78.6708 35.7883 80.7443 34.4076 82.4909 32.6671C84.2375 30.9266 85.623 28.8603 86.5682 26.5862C87.5135 24.3121 88 21.8747 88 19.4132C88 16.9518 87.5135 14.5144 86.5682 12.2403C85.623 9.96619 84.2375 7.89988 82.4909 6.15936C80.7443 4.41884 78.6708 3.03818 76.3888 2.09622C74.1067 1.15426 71.6608 0.669433 69.1908 0.669433L69.1908 19.4132L69.1908 38.157Z" fill="white"/>
<path d="M35.603 81L19.3587 81C17.9421 81 16.7938 79.8517 16.7938 78.4351L16.7938 46.0773C16.7938 44.6608 17.9421 43.5124 19.3587 43.5124L33.0382 43.5124C34.4547 43.5124 35.603 44.6608 35.603 46.0773L35.603 81Z" fill="white"/>
<path d="M51.0527 0.669434L68.6406 0.66944C70.0572 0.66944 71.2055 1.81778 71.2055 3.23432L71.2055 35.5921C71.2055 37.0087 70.0571 38.157 68.6406 38.157L53.6176 38.157C52.2011 38.157 51.0527 37.0087 51.0527 35.5921L51.0527 0.669434Z" fill="white"/>
<path d="M88 62.4046C88 72.6746 79.6746 81 69.4046 81L49.038 81L88 41.5042L88 62.4046Z" fill="white"/>
<path d="M-3.25132e-06 18.5954C-1.45566e-06 8.32543 8.32544 1.45567e-06 18.5954 3.25132e-06L38.962 6.81233e-06L-7.02272e-06 40.1653L-3.25132e-06 18.5954Z" fill="white"/>
<path d="M51.0527 43.3996C51.0527 41.9831 52.2011 40.8347 53.6176 40.8347H68.5184L51.0527 58.2397V43.3996Z" fill="white"/>
<path d="M35.603 38.2698C35.603 39.6864 34.4547 40.8347 33.0381 40.8347L18.1373 40.8347L35.603 23.4298L35.603 38.2698Z" fill="white"/>
</svg>
