<svg width="25" height="24" viewBox="0 0 25 24" fill="none" xmlns="http://www.w3.org/2000/svg">
<path d="M13.2664 13.1772L13.6954 12.75H13.09H5.5C5.30109 12.75 5.11032 12.671 4.96967 12.5303C4.82902 12.3897 4.75 12.1989 4.75 12C4.75 11.8011 4.82902 11.6103 4.96967 11.4697C5.11032 11.329 5.30109 11.25 5.5 11.25H13.09H13.6954L13.2664 10.8228L10.9668 8.53322C10.9668 8.5332 10.9667 8.53319 10.9667 8.53317C10.8967 8.46316 10.8412 8.38004 10.8033 8.28858C10.7654 8.19709 10.7459 8.09903 10.7459 8C10.7459 7.90097 10.7654 7.80291 10.8033 7.71142C10.8412 7.61993 10.8968 7.5368 10.9668 7.46678C11.0368 7.39675 11.1199 7.34121 11.2114 7.30331C11.3029 7.26541 11.401 7.24591 11.5 7.24591C11.599 7.24591 11.6971 7.26541 11.7886 7.30331C11.8801 7.34121 11.9632 7.39675 12.0332 7.46678L16.0312 11.4647C16.0986 11.5357 16.1515 11.6191 16.1869 11.7104L16.1869 11.7104L16.1888 11.715C16.2638 11.8976 16.2638 12.1024 16.1888 12.285L16.1887 12.285L16.1869 12.2896C16.1515 12.3809 16.0986 12.4643 16.0312 12.5353L12.0332 16.5332L12.0325 16.5339C11.9628 16.6042 11.8798 16.66 11.7884 16.6981C11.697 16.7362 11.599 16.7558 11.5 16.7558C11.401 16.7558 11.303 16.7362 11.2116 16.6981C11.1202 16.66 11.0372 16.6042 10.9675 16.5339L10.9661 16.5325C10.8958 16.4628 10.84 16.3798 10.8019 16.2884C10.7638 16.197 10.7442 16.099 10.7442 16C10.7442 15.901 10.7638 15.803 10.8019 15.7116C10.84 15.6202 10.8958 15.5372 10.9661 15.4675L10.9664 15.4672L13.2664 13.1772ZM7.5 2.25H17.5C18.2293 2.25 18.9288 2.53973 19.4445 3.05546C19.9603 3.57118 20.25 4.27065 20.25 5V19C20.25 19.7293 19.9603 20.4288 19.4445 20.9445C18.9288 21.4603 18.2293 21.75 17.5 21.75H7.5C6.77065 21.75 6.07118 21.4603 5.55546 20.9445C5.03973 20.4288 4.75 19.7293 4.75 19V16C4.75 15.8011 4.82902 15.6103 4.96967 15.4697C5.11032 15.329 5.30109 15.25 5.5 15.25C5.69891 15.25 5.88968 15.329 6.03033 15.4697C6.17098 15.6103 6.25 15.8011 6.25 16V19C6.25 19.3315 6.3817 19.6495 6.61612 19.8839C6.85054 20.1183 7.16848 20.25 7.5 20.25H17.5C17.8315 20.25 18.1495 20.1183 18.3839 19.8839C18.6183 19.6495 18.75 19.3315 18.75 19V5C18.75 4.66848 18.6183 4.35054 18.3839 4.11612C18.1495 3.8817 17.8315 3.75 17.5 3.75H7.5C7.16848 3.75 6.85054 3.8817 6.61612 4.11612C6.3817 4.35054 6.25 4.66848 6.25 5V8C6.25 8.19891 6.17098 8.38968 6.03033 8.53033C5.88968 8.67098 5.69891 8.75 5.5 8.75C5.30109 8.75 5.11032 8.67098 4.96967 8.53033C4.82902 8.38968 4.75 8.19891 4.75 8V5C4.75 4.27065 5.03973 3.57118 5.55546 3.05546C6.07118 2.53973 6.77065 2.25 7.5 2.25Z" fill="white" stroke="#050F67" stroke-width="0.5"/>
</svg>
