<svg width="24" height="24" viewBox="0 0 24 24" fill="none" xmlns="http://www.w3.org/2000/svg">
<path d="M2 12H8M6.25 5.99999L6.495 5.71999C6.68272 5.5055 6.91411 5.33362 7.17367 5.21586C7.43324 5.09809 7.71497 5.03717 8 5.03717C8.28503 5.03717 8.56676 5.09809 8.82633 5.21586C9.08589 5.33362 9.31728 5.5055 9.505 5.71999L13.848 10.683C14.167 11.0476 14.3428 11.5155 14.3428 12C14.3428 12.4844 14.167 12.9524 13.848 13.317L9.505 18.28C9.31728 18.4945 9.08589 18.6664 8.82633 18.7841C8.56676 18.9019 8.28503 18.9628 8 18.9628C7.71497 18.9628 7.43324 18.9019 7.17367 18.7841C6.91411 18.6664 6.68272 18.4945 6.495 18.28L6.25 18" stroke="#A1A2B4" stroke-linecap="round" stroke-linejoin="round"/>
<path d="M13 19L17.884 13.302C18.1949 12.9395 18.3658 12.4776 18.3658 12C18.3658 11.5224 18.1949 11.0605 17.884 10.698L13 5" stroke="#A1A2B4" stroke-linecap="round" stroke-linejoin="round"/>
<path d="M17 19L21.884 13.302C22.1949 12.9395 22.3658 12.4776 22.3658 12C22.3658 11.5224 22.1949 11.0605 21.884 10.698L17 5" stroke="#A1A2B4" stroke-linecap="round" stroke-linejoin="round"/>
</svg>
