<svg width="25" height="24" viewBox="0 0 25 24" fill="none" xmlns="http://www.w3.org/2000/svg">
<path d="M18.0569 21.4907C17.8966 21.4913 17.7385 21.4536 17.5959 21.3808L12.485 18.712L7.37405 21.3808C7.20808 21.4678 7.02097 21.5066 6.83397 21.4929C6.64697 21.4792 6.46759 21.4134 6.31621 21.303C6.16484 21.1926 6.04755 21.0421 5.97768 20.8686C5.9078 20.695 5.88814 20.5054 5.92094 20.3213L6.92308 14.6939L2.79426 10.6958C2.66544 10.5676 2.57406 10.4068 2.52992 10.2307C2.48578 10.0546 2.49055 9.86989 2.54372 9.6963C2.60181 9.51866 2.70865 9.36081 2.85213 9.24067C2.99561 9.12053 3.16998 9.04291 3.35546 9.01662L9.06767 8.18701L11.583 3.05945C11.6651 2.89046 11.7932 2.74794 11.9527 2.64822C12.1123 2.5485 12.2967 2.49561 12.485 2.49561C12.6732 2.49561 12.8577 2.5485 13.0172 2.64822C13.1767 2.74794 13.3048 2.89046 13.3869 3.05945L15.9323 8.17702L21.6445 9.00663C21.83 9.03292 22.0044 9.11054 22.1479 9.23068C22.2913 9.35082 22.3982 9.50866 22.4563 9.6863C22.5094 9.85989 22.5142 10.0447 22.4701 10.2207C22.4259 10.3968 22.3346 10.5576 22.2057 10.6858L18.0769 14.6839L19.0791 20.3113C19.1148 20.4986 19.0961 20.6923 19.0251 20.8694C18.954 21.0466 18.8337 21.1997 18.6782 21.3108C18.4967 21.4376 18.2782 21.5009 18.0569 21.4907ZM12.485 16.593C12.6456 16.589 12.8045 16.6269 12.946 16.703L16.724 18.702L16.0025 14.494C15.9745 14.3333 15.9863 14.1683 16.037 14.0132C16.0877 13.8582 16.1756 13.7178 16.2931 13.6044L19.2995 10.6758L15.0905 10.0561C14.9362 10.0251 14.7913 9.9583 14.6677 9.86106C14.5441 9.76381 14.4452 9.63888 14.379 9.49639L12.485 5.74817L10.5909 9.49639C10.5184 9.64003 10.4122 9.7641 10.2814 9.85806C10.1505 9.95202 9.99889 10.0131 9.83931 10.0361L5.63032 10.6558L8.63674 13.5845C8.75427 13.6978 8.8422 13.8382 8.89286 13.9932C8.94351 14.1483 8.95536 14.3134 8.92736 14.474L8.20582 18.6321L11.9839 16.633C12.144 16.5736 12.3175 16.5598 12.485 16.593Z" fill="#A1A2B4"/>
</svg>
