<svg width="33" height="32" viewBox="0 0 33 32" fill="none" xmlns="http://www.w3.org/2000/svg">
<rect x="0.5" width="32" height="32" rx="16" fill="#ECF7FF"/>
<path d="M22.0569 25.4907C21.8966 25.4913 21.7385 25.4536 21.5959 25.3808L16.485 22.712L11.374 25.3808C11.2081 25.4678 11.021 25.5066 10.834 25.4929C10.647 25.4792 10.4676 25.4134 10.3162 25.303C10.1648 25.1926 10.0476 25.0421 9.97768 24.8686C9.9078 24.695 9.88814 24.5054 9.92094 24.3213L10.9231 18.6939L6.79426 14.6958C6.66544 14.5676 6.57406 14.4068 6.52992 14.2307C6.48578 14.0546 6.49055 13.8699 6.54372 13.6963C6.60181 13.5187 6.70865 13.3608 6.85213 13.2407C6.99561 13.1205 7.16998 13.0429 7.35546 13.0166L13.0677 12.187L15.583 7.05945C15.6651 6.89046 15.7932 6.74794 15.9527 6.64822C16.1123 6.5485 16.2967 6.49561 16.485 6.49561C16.6732 6.49561 16.8577 6.5485 17.0172 6.64822C17.1767 6.74794 17.3048 6.89046 17.3869 7.05945L19.9323 12.177L25.6445 13.0066C25.83 13.0329 26.0044 13.1105 26.1479 13.2307C26.2913 13.3508 26.3982 13.5087 26.4563 13.6863C26.5094 13.8599 26.5142 14.0447 26.4701 14.2207C26.4259 14.3968 26.3346 14.5576 26.2057 14.6858L22.0769 18.6839L23.0791 24.3113C23.1148 24.4986 23.0961 24.6923 23.0251 24.8694C22.954 25.0466 22.8337 25.1997 22.6782 25.3108C22.4967 25.4376 22.2782 25.5009 22.0569 25.4907ZM16.485 20.593C16.6456 20.589 16.8045 20.6269 16.946 20.703L20.724 22.702L20.0025 18.494C19.9745 18.3333 19.9863 18.1683 20.037 18.0132C20.0877 17.8582 20.1756 17.7178 20.2931 17.6044L23.2995 14.6758L19.0905 14.0561C18.9362 14.0251 18.7913 13.9583 18.6677 13.8611C18.5441 13.7638 18.4452 13.6389 18.379 13.4964L16.485 9.74817L14.5909 13.4964C14.5184 13.64 14.4122 13.7641 14.2814 13.8581C14.1505 13.952 13.9989 14.0131 13.8393 14.0361L9.63032 14.6558L12.6367 17.5845C12.7543 17.6978 12.8422 17.8382 12.8929 17.9932C12.9435 18.1483 12.9554 18.3134 12.9274 18.474L12.2058 22.6321L15.9839 20.633C16.144 20.5736 16.3175 20.5598 16.485 20.593Z" fill="#050F67"/>
</svg>
