<svg width="24" height="24" viewBox="0 0 24 24" fill="none" xmlns="http://www.w3.org/2000/svg">
<rect x="2.5" y="2.5" width="19" height="19" rx="9.5" stroke="#A1A2B4"/>
<path fill-rule="evenodd" clip-rule="evenodd" d="M12 12.0011C10.897 12.0011 10 11.1043 10 10.0015C10 8.89875 10.897 8.00194 12 8.00194C13.103 8.00194 14 8.89875 14 10.0015C14 11.1043 13.103 12.0011 12 12.0011ZM13.879 12.3375C14.2291 12.0571 14.5116 11.7016 14.7056 11.2972C14.8997 10.8928 15.0003 10.45 15 10.0015C15.0004 9.4944 14.8721 8.99549 14.6272 8.55139C14.3824 8.10728 14.0289 7.73245 13.5998 7.46202C13.1707 7.1916 12.68 7.03438 12.1737 7.00503C11.6673 6.97567 11.1617 7.07518 10.7043 7.29421C10.2468 7.51324 9.85232 7.84467 9.55775 8.2575C9.26318 8.67034 9.07811 9.15109 9.01985 9.65485C8.96159 10.1586 9.03204 10.6689 9.22461 11.138C9.41718 11.6072 9.72559 12.0199 10.121 12.3375C8.42799 12.9736 7.19569 14.4752 7.02125 16.5002C6.99755 16.7754 7.22386 17 7.5 17C7.77614 17 7.99696 16.7751 8.02484 16.5004C8.24788 14.302 9.94564 13.0009 12 13.0009C14.0544 13.0009 15.7521 14.302 15.9752 16.5004C16.003 16.7751 16.2239 17 16.5 17C16.7761 17 17.0024 16.7754 16.9787 16.5002C16.8043 14.4752 15.572 12.9736 13.879 12.3375Z" fill="#A1A2B4"/>
</svg>
