<svg width="24" height="24" viewBox="0 0 24 24" fill="none" xmlns="http://www.w3.org/2000/svg">
<path d="M13.1098 3.49902H5.49707C4.3925 3.49902 3.49707 4.39445 3.49707 5.49902V18.5366C3.49707 19.6412 4.3925 20.5366 5.49707 20.5366H18.5146C19.6192 20.5366 20.5146 19.6412 20.5146 18.5366V11.9511" stroke="#A1A2B4" stroke-linecap="round"/>
<path d="M14.8098 5.61729L16.5774 3.84951C17.3584 3.0684 18.6248 3.06837 19.4059 3.84944L20.1604 4.60396C20.9414 5.38501 20.9414 6.65134 20.1604 7.43239L18.3926 9.20015M14.8098 5.61729L7.90231 12.5245C7.56825 12.8585 7.36323 13.3 7.32356 13.7708L7.10497 16.3647C7.07897 16.6732 7.33672 16.9309 7.64521 16.9049L10.2391 16.6862C10.7098 16.6465 11.1512 16.4415 11.4853 16.1075L18.3926 9.20015M14.8098 5.61729L18.3926 9.20015" stroke="#A1A2B4" stroke-linecap="round"/>
</svg>
