<svg width="305" height="304" viewBox="0 0 305 304" fill="none" xmlns="http://www.w3.org/2000/svg">
<path opacity="0.07" d="M277.206 128.137C277.206 129.788 277.169 131.439 277.059 132.979C292.847 144.975 305 170.69 305 193.324C305 217.976 290.571 229.605 272.763 219.333C272.727 219.297 272.69 219.297 272.653 219.26L160.78 154.806C160.743 154.77 160.706 154.77 160.633 154.733C140.623 143.178 124.394 111.373 124.394 83.6761C124.394 57.7406 138.64 44.571 156.888 52.5314C159.127 34.7397 171.06 27.0728 185.453 35.4C192.355 39.3986 198.707 46.4052 203.664 54.8425C210.86 44.1675 223.123 41.4529 237.002 49.45C259.215 62.216 277.206 97.4693 277.206 128.137Z" fill="url(#paint0_linear_302_4089)"/>
<path opacity="0.4" d="M258.848 145.745C258.848 147.396 258.811 149.047 258.701 150.588C274.489 162.583 286.642 188.299 286.642 210.933C286.642 235.584 272.212 247.213 254.405 236.942C254.368 236.905 254.332 236.905 254.295 236.868L142.421 172.415C142.384 172.378 142.348 172.378 142.274 172.341C122.264 160.786 106.036 128.981 106.036 101.284C106.036 75.3488 120.281 62.1793 138.529 70.1397C140.769 52.348 152.702 44.681 167.094 53.0083C173.997 57.0069 180.349 64.0135 185.306 72.4508C192.502 61.7758 204.765 59.0612 218.644 67.0583C240.857 79.8243 258.848 115.078 258.848 145.745Z" fill="url(#paint1_linear_302_4089)"/>
<path opacity="0.2" d="M81.7296 177.147L64.6934 167.316V161.556L81.7296 171.387C83.1248 172.194 85.1442 173.809 86.8698 176.303C88.7423 178.981 90.0641 182.356 90.0641 186.024C90.0641 190.06 89.0361 192.371 87.0534 193.031C85.2176 193.655 83.0514 192.591 81.6929 191.82L74.6801 187.785L74.6434 187.748C74.0559 187.382 73.1013 187.052 72.3303 187.272C71.7061 187.455 71.0085 188.079 71.0085 190.316C71.0085 192.554 71.7061 193.948 72.2936 194.755C73.0279 195.782 73.9825 196.516 74.57 196.809L74.6434 196.846L96.0488 209.209V214.968L74.7535 202.679C73.2849 201.909 71.1921 200.294 69.3563 197.727C67.3736 194.939 65.9784 191.38 66.0151 187.418C66.0151 183.493 67.3736 181.476 69.3563 180.925C71.1921 180.412 73.2849 181.145 74.7535 182.062L81.6929 186.061C82.6842 186.648 83.4552 186.905 83.9326 186.721C84.2997 186.611 85.034 186.061 85.034 183.126C85.034 181.255 84.4099 180.008 83.8591 179.164C83.1982 178.211 82.2803 177.477 81.7296 177.147Z" fill="white"/>
<path fill-rule="evenodd" clip-rule="evenodd" d="M68.3646 165.885C68.3646 170.617 65.5742 172.855 62.1596 170.911C58.745 168.93 55.9546 163.5 55.9546 158.732C55.9546 153.999 58.745 151.762 62.1596 153.706C65.5742 155.687 68.3646 161.153 68.3646 165.885Z" fill="#ECF7FF"/>
<path fill-rule="evenodd" clip-rule="evenodd" d="M104.715 216.876C104.715 221.608 101.924 223.846 98.5097 221.901C95.0951 219.92 92.3047 214.491 92.3047 209.722C92.3047 204.99 95.0951 202.752 98.5097 204.697C101.924 206.677 104.715 212.143 104.715 216.876Z" fill="#ECF7FF"/>
<path opacity="0.07" d="M134.05 95.0114L244.161 158.511V216.729L134.013 153.229L134.05 95.0114Z" fill="url(#paint2_linear_302_4089)"/>
<path opacity="0.3" d="M119.327 102.348L229.438 165.848V224.066L119.327 160.566V102.348Z" fill="url(#paint3_linear_302_4089)"/>
<path fill-rule="evenodd" clip-rule="evenodd" d="M129.204 137.015C129.204 141.71 131.994 147.103 135.409 149.084C138.823 151.065 141.614 148.863 141.614 144.168C141.614 139.472 138.823 134.08 135.409 132.099C131.994 130.118 129.204 132.319 129.204 137.015Z" fill="#ECF7FF"/>
<path opacity="0.15" d="M144.734 146.076C144.734 148.24 146.019 150.771 147.635 151.688C149.214 152.605 150.499 151.578 150.499 149.414C150.499 147.249 149.214 144.718 147.598 143.801C146.019 142.884 144.734 143.911 144.734 146.076Z" fill="white"/>
<path opacity="0.15" d="M153.583 151.175C153.583 153.339 154.869 155.87 156.484 156.787C158.063 157.704 159.348 156.677 159.348 154.513C159.348 152.349 158.063 149.817 156.447 148.9C154.869 147.983 153.583 149.01 153.583 151.175Z" fill="white"/>
<path opacity="0.15" d="M201.645 161.079V194.205L197.312 191.71V158.585L201.645 161.079Z" fill="white"/>
<path opacity="0.15" d="M211.117 166.582V199.707L206.784 197.213V164.087L211.117 166.582Z" fill="white"/>
<path opacity="0.15" d="M220.626 172.084V205.21L216.294 202.716V169.59L220.626 172.084Z" fill="white"/>
<path opacity="0.07" d="M134.013 174.579L244.124 238.079V296.296L134.013 232.796V174.579Z" fill="url(#paint4_linear_302_4089)"/>
<path opacity="0.3" d="M119.327 182.283L229.438 245.783V304L119.327 240.5V182.283Z" fill="url(#paint5_linear_302_4089)"/>
<path fill-rule="evenodd" clip-rule="evenodd" d="M129.204 216.949C129.204 221.644 131.994 227.037 135.409 229.018C138.823 230.999 141.614 228.798 141.614 224.102C141.614 219.407 138.823 214.014 135.409 212.033C131.994 210.052 129.204 212.253 129.204 216.949Z" fill="#ECF7FF"/>
<path opacity="0.15" d="M144.734 226.047C144.734 228.211 146.019 230.742 147.635 231.659C149.214 232.576 150.499 231.549 150.499 229.385C150.499 227.22 149.214 224.689 147.598 223.772C146.019 222.855 144.734 223.846 144.734 226.047Z" fill="white"/>
<path opacity="0.15" d="M153.546 231.146C153.546 233.31 154.831 235.841 156.447 236.758C158.026 237.675 159.311 236.648 159.311 234.484C159.311 232.319 158.026 229.788 156.41 228.871C154.831 227.917 153.546 228.945 153.546 231.146Z" fill="white"/>
<path opacity="0.15" d="M201.645 242.151V275.276L197.312 272.782V239.656L201.645 242.151Z" fill="white"/>
<path opacity="0.15" d="M211.117 247.653V280.779L206.784 278.284V245.159L211.117 247.653Z" fill="white"/>
<path opacity="0.15" d="M220.626 253.156V286.282L216.294 283.787V250.661L220.626 253.156Z" fill="white"/>
<path opacity="0.3" d="M21.5522 16.1043L90.1745 55.6863V182.723L21.5522 143.104V16.1043Z" fill="url(#paint6_linear_302_4089)"/>
<path fill-rule="evenodd" clip-rule="evenodd" d="M63.9222 62.106C63.9222 68.4523 60.2506 71.4604 55.7345 68.8192C51.2185 66.1779 47.5469 58.9145 47.5469 52.5682C47.5469 46.2218 51.2185 43.2137 55.7345 45.855C60.2506 48.4962 63.9222 55.7597 63.9222 62.106Z" fill="#24D7E3"/>
<path fill-rule="evenodd" clip-rule="evenodd" d="M55.7353 73.9182C48.4289 69.6629 42.4074 73.6614 41.3427 82.8324C41.1591 84.4098 42.3707 86.5375 43.8394 87.3812L67.6681 101.284C69.1367 102.128 70.3483 101.468 70.1647 99.6337C69.0633 89.1787 63.0051 78.1736 55.7353 73.9182Z" fill="#24D7E3"/>
<path opacity="0.15" d="M35.3208 98.4965L76.2224 122.084V127.073L35.3208 103.485V98.4965Z" fill="white"/>
<path opacity="0.15" d="M39.4697 110.786L71.89 129.458V134.447L39.4697 115.775V110.786Z" fill="white"/>
<path fill-rule="evenodd" clip-rule="evenodd" d="M47.7308 131.769L0 104.219V118.416L47.7308 145.965V131.769Z" fill="#24D7E3"/>
<path opacity="0.2" d="M104.971 0L115.178 20.0294C116.574 22.7807 116.353 25.532 114.664 26.1923C112.975 26.8527 110.479 25.1285 109.084 22.3772L108.973 22.1204V44.3509C108.973 46.8821 107.211 47.9092 105.008 46.662C102.805 45.3781 101.043 42.3333 101.043 39.8021V17.5716L100.933 17.6817C99.5374 18.8189 97.004 17.645 95.3518 15.0404C93.6629 12.4359 93.4426 9.42778 94.8378 8.29057L104.971 0Z" fill="url(#paint7_linear_302_4089)"/>
<path opacity="0.2" d="M104.971 295.746L94.764 275.717C93.3688 272.965 93.5891 270.214 95.2781 269.554C96.967 268.893 99.4637 270.618 100.859 273.369L100.969 273.626V251.395C100.969 248.864 102.731 247.837 104.934 249.084C107.137 250.368 108.9 253.413 108.9 255.944V278.174L109.01 278.064C110.405 276.927 112.938 278.101 114.591 280.706C116.28 283.31 116.5 286.318 115.105 287.455L104.971 295.746Z" fill="url(#paint8_linear_302_4089)"/>
<defs>
<linearGradient id="paint0_linear_302_4089" x1="289.406" y1="58.0794" x2="182.329" y2="159.733" gradientUnits="userSpaceOnUse">
<stop stop-color="white"/>
<stop offset="1" stop-color="white" stop-opacity="0"/>
</linearGradient>
<linearGradient id="paint1_linear_302_4089" x1="271.046" y1="75.6895" x2="163.969" y2="177.343" gradientUnits="userSpaceOnUse">
<stop stop-color="white"/>
<stop offset="1" stop-color="white" stop-opacity="0"/>
</linearGradient>
<linearGradient id="paint2_linear_302_4089" x1="187.257" y1="99.6662" x2="191.351" y2="202.616" gradientUnits="userSpaceOnUse">
<stop stop-color="white"/>
<stop offset="1" stop-color="white" stop-opacity="0"/>
</linearGradient>
<linearGradient id="paint3_linear_302_4089" x1="172.554" y1="107.004" x2="176.648" y2="209.953" gradientUnits="userSpaceOnUse">
<stop stop-color="white"/>
<stop offset="1" stop-color="white" stop-opacity="0"/>
</linearGradient>
<linearGradient id="paint4_linear_302_4089" x1="187.24" y1="179.247" x2="191.334" y2="282.196" gradientUnits="userSpaceOnUse">
<stop stop-color="white"/>
<stop offset="1" stop-color="white" stop-opacity="0"/>
</linearGradient>
<linearGradient id="paint5_linear_302_4089" x1="172.554" y1="186.95" x2="176.648" y2="289.899" gradientUnits="userSpaceOnUse">
<stop stop-color="white"/>
<stop offset="1" stop-color="white" stop-opacity="0"/>
</linearGradient>
<linearGradient id="paint6_linear_302_4089" x1="62.92" y1="27.2747" x2="14.7129" y2="110.867" gradientUnits="userSpaceOnUse">
<stop stop-color="white"/>
<stop offset="1" stop-color="white" stop-opacity="0"/>
</linearGradient>
<linearGradient id="paint7_linear_302_4089" x1="106.601" y1="20.2077" x2="99.0584" y2="24.416" gradientUnits="userSpaceOnUse">
<stop stop-color="white"/>
<stop offset="1" stop-color="white" stop-opacity="0"/>
</linearGradient>
<linearGradient id="paint8_linear_302_4089" x1="103.337" y1="275.55" x2="110.88" y2="271.342" gradientUnits="userSpaceOnUse">
<stop stop-color="white"/>
<stop offset="1" stop-color="white" stop-opacity="0"/>
</linearGradient>
</defs>
</svg>
