<svg width="24" height="24" viewBox="0 0 24 24" fill="none" xmlns="http://www.w3.org/2000/svg">
<path fill-rule="evenodd" clip-rule="evenodd" d="M18.1945 7.1311C18.3693 7.30591 18.3693 7.58932 18.1945 7.76412L10.3635 15.5951L9.73047 14.9621L17.5614 7.1311C17.7362 6.9563 18.0197 6.9563 18.1945 7.1311ZM7.86837 14.3473L6.43856 12.9175C6.26375 12.7427 5.98034 12.7427 5.80554 12.9175C5.63074 13.0923 5.63074 13.3757 5.80554 13.5505L8.47379 16.2188L8.47036 16.2222L9.10338 16.8552L9.10681 16.8518L10.6275 18.3725C10.8023 18.5473 11.0857 18.5473 11.2605 18.3725L21.8689 7.76412C22.0437 7.58932 22.0437 7.30591 21.8689 7.1311C21.6941 6.9563 21.4107 6.9563 21.2359 7.1311L10.944 17.423L10.7641 17.243L10.7547 17.2524L7.85901 14.3567L7.86837 14.3473ZM8.47036 17.4882L7.83734 16.8552L7.26959 17.423L2.76412 12.9175C2.58932 12.7427 2.30591 12.7427 2.1311 12.9175C1.9563 13.0923 1.9563 13.3757 2.1311 13.5505L6.95308 18.3725C7.12789 18.5473 7.4113 18.5473 7.5861 18.3725L8.47036 17.4882Z" fill="#79D257"/>
</svg>
