<svg width="25" height="24" viewBox="0 0 25 24" fill="none" xmlns="http://www.w3.org/2000/svg">
<path d="M12.8827 12.2924C12.6958 12.1092 12.4444 12.0066 12.1827 12.0066C11.9209 12.0066 11.6696 12.1092 11.4827 12.2924L8.48269 15.1924C8.37658 15.28 8.28967 15.3885 8.22741 15.5112C8.16515 15.6339 8.12887 15.7681 8.12084 15.9054C8.11282 16.0427 8.13321 16.1803 8.18076 16.3094C8.2283 16.4384 8.30197 16.5563 8.39715 16.6557C8.49234 16.755 8.60699 16.8336 8.73395 16.8866C8.8609 16.9396 8.99743 16.9658 9.13498 16.9636C9.27253 16.9615 9.40816 16.9309 9.53337 16.8739C9.65858 16.8169 9.77069 16.7347 9.86268 16.6324L11.1727 15.3624V21.0024C11.1727 21.2677 11.278 21.522 11.4656 21.7096C11.6531 21.8971 11.9075 22.0024 12.1727 22.0024C12.4379 22.0024 12.6923 21.8971 12.8798 21.7096C13.0673 21.522 13.1727 21.2677 13.1727 21.0024V15.4124L14.4627 16.7124C14.5556 16.8062 14.6662 16.8806 14.7881 16.9313C14.91 16.9821 15.0407 17.0082 15.1727 17.0082C15.3047 17.0082 15.4354 16.9821 15.5573 16.9313C15.6791 16.8806 15.7897 16.8062 15.8827 16.7124C15.9764 16.6195 16.0508 16.5089 16.1016 16.387C16.1523 16.2652 16.1785 16.1345 16.1785 16.0024C16.1785 15.8704 16.1523 15.7397 16.1016 15.6179C16.0508 15.496 15.9764 15.3854 15.8827 15.2924L12.8827 12.2924Z" fill="#A1A2B4"/>
<path d="M17.7952 6.03758C17.3884 4.85863 16.6254 3.8362 15.6122 3.11254C14.5991 2.38888 13.3862 2 12.1424 2C10.8986 2 9.68579 2.38888 8.67264 3.11254C7.65948 3.8362 6.89641 4.85863 6.48961 6.03758C5.59388 6.15791 4.74762 6.52023 4.04135 7.08577C3.33508 7.65131 2.79537 8.3988 2.47996 9.24827C2.16455 10.0977 2.0853 11.0172 2.2507 11.9084C2.41609 12.7996 2.81991 13.6289 3.41894 14.3076C3.4913 14.4354 3.59087 14.5457 3.71056 14.6305C3.83025 14.7154 3.96712 14.7727 4.11142 14.7984C4.25572 14.8242 4.40391 14.8177 4.54542 14.7794C4.68693 14.7411 4.81829 14.6721 4.93015 14.5771C5.042 14.4821 5.1316 14.3635 5.19257 14.2298C5.25353 14.0961 5.28436 13.9506 5.28285 13.8036C5.28135 13.6566 5.24755 13.5117 5.18386 13.3793C5.12018 13.2469 5.02817 13.1302 4.9144 13.0376C4.52868 12.605 4.27632 12.0696 4.18789 11.4961C4.09946 10.9226 4.17876 10.3357 4.41618 9.80645C4.6536 9.27725 5.03895 8.82847 5.52553 8.51451C6.01211 8.20055 6.57902 8.03488 7.15758 8.03758H7.25727C7.49051 8.0423 7.71801 7.96482 7.90018 7.81865C8.08234 7.67247 8.20764 7.46685 8.25425 7.23758C8.4373 6.33335 8.92639 5.5204 9.63863 4.93648C10.3509 4.35255 11.2425 4.03357 12.1624 4.03357C13.0823 4.03357 13.9739 4.35255 14.6861 4.93648C15.3983 5.5204 15.8874 6.33335 16.0705 7.23758C16.1171 7.46685 16.2424 7.67247 16.4246 7.81865C16.6067 7.96482 16.8342 8.0423 17.0675 8.03758H17.1273C17.7058 8.03488 18.2727 8.20055 18.7593 8.51451C19.2459 8.82847 19.6313 9.27725 19.8687 9.80645C20.1061 10.3357 20.1854 10.9226 20.097 11.4961C20.0085 12.0696 19.7562 12.605 19.3705 13.0376C19.2826 13.1364 19.2152 13.2516 19.1722 13.3768C19.1291 13.5019 19.1112 13.6343 19.1196 13.7664C19.1279 13.8985 19.1623 14.0276 19.2208 14.1462C19.2793 14.2649 19.3606 14.3707 19.4602 14.4576C19.6419 14.6184 19.8759 14.7072 20.1182 14.7076C20.2597 14.7074 20.3996 14.677 20.5286 14.6184C20.6575 14.5597 20.7725 14.4742 20.8659 14.3676C21.4816 13.69 21.8997 12.8557 22.0745 11.9559C22.2493 11.0561 22.1741 10.1254 21.8571 9.26555C21.5402 8.4057 20.9936 7.64981 20.2773 7.08051C19.5609 6.51121 18.7023 6.15042 17.7952 6.03758Z" fill="#A1A2B4"/>
</svg>
