<svg width="33" height="32" viewBox="0 0 33 32" fill="none" xmlns="http://www.w3.org/2000/svg">
<rect x="0.166504" width="32" height="32" rx="16" fill="#ECF7FF"/>
<path d="M16.8827 16.2924C16.6958 16.1092 16.4444 16.0066 16.1827 16.0066C15.9209 16.0066 15.6696 16.1092 15.4827 16.2924L12.4827 19.1924C12.3766 19.28 12.2897 19.3885 12.2274 19.5112C12.1652 19.6339 12.1289 19.7681 12.1208 19.9054C12.1128 20.0427 12.1332 20.1803 12.1808 20.3094C12.2283 20.4384 12.302 20.5563 12.3972 20.6557C12.4923 20.755 12.607 20.8336 12.7339 20.8866C12.8609 20.9396 12.9974 20.9658 13.135 20.9636C13.2725 20.9615 13.4082 20.9309 13.5334 20.8739C13.6586 20.8169 13.7707 20.7347 13.8627 20.6324L15.1727 19.3624V25.0024C15.1727 25.2677 15.278 25.522 15.4656 25.7096C15.6531 25.8971 15.9075 26.0024 16.1727 26.0024C16.4379 26.0024 16.6923 25.8971 16.8798 25.7096C17.0673 25.522 17.1727 25.2677 17.1727 25.0024V19.4124L18.4627 20.7124C18.5556 20.8062 18.6662 20.8806 18.7881 20.9313C18.91 20.9821 19.0407 21.0082 19.1727 21.0082C19.3047 21.0082 19.4354 20.9821 19.5573 20.9313C19.6791 20.8806 19.7897 20.8062 19.8827 20.7124C19.9764 20.6195 20.0508 20.5089 20.1016 20.387C20.1523 20.2652 20.1785 20.1345 20.1785 20.0024C20.1785 19.8704 20.1523 19.7397 20.1016 19.6179C20.0508 19.496 19.9764 19.3854 19.8827 19.2924L16.8827 16.2924Z" fill="#050F67"/>
<path d="M21.7952 10.0376C21.3884 8.85863 20.6254 7.8362 19.6122 7.11254C18.5991 6.38888 17.3862 6 16.1424 6C14.8986 6 13.6858 6.38888 12.6726 7.11254C11.6595 7.8362 10.8964 8.85863 10.4896 10.0376C9.59388 10.1579 8.74762 10.5202 8.04135 11.0858C7.33508 11.6513 6.79537 12.3988 6.47996 13.2483C6.16455 14.0977 6.0853 15.0172 6.2507 15.9084C6.41609 16.7996 6.81991 17.6289 7.41894 18.3076C7.4913 18.4354 7.59087 18.5457 7.71056 18.6305C7.83025 18.7154 7.96712 18.7727 8.11142 18.7984C8.25572 18.8242 8.40391 18.8177 8.54542 18.7794C8.68693 18.7411 8.81829 18.6721 8.93015 18.5771C9.042 18.4821 9.1316 18.3635 9.19257 18.2298C9.25353 18.0961 9.28436 17.9506 9.28285 17.8036C9.28135 17.6566 9.24755 17.5117 9.18386 17.3793C9.12018 17.2469 9.02817 17.1302 8.9144 17.0376C8.52868 16.605 8.27632 16.0696 8.18789 15.4961C8.09946 14.9226 8.17876 14.3357 8.41618 13.8065C8.6536 13.2772 9.03895 12.8285 9.52553 12.5145C10.0121 12.2005 10.579 12.0349 11.1576 12.0376H11.2573C11.4905 12.0423 11.718 11.9648 11.9002 11.8186C12.0823 11.6725 12.2076 11.4669 12.2542 11.2376C12.4373 10.3333 12.9264 9.5204 13.6386 8.93648C14.3509 8.35255 15.2425 8.03357 16.1624 8.03357C17.0823 8.03357 17.9739 8.35255 18.6861 8.93648C19.3983 9.5204 19.8874 10.3333 20.0705 11.2376C20.1171 11.4669 20.2424 11.6725 20.4246 11.8186C20.6067 11.9648 20.8342 12.0423 21.0675 12.0376H21.1273C21.7058 12.0349 22.2727 12.2005 22.7593 12.5145C23.2459 12.8285 23.6313 13.2772 23.8687 13.8065C24.1061 14.3357 24.1854 14.9226 24.097 15.4961C24.0085 16.0696 23.7562 16.605 23.3705 17.0376C23.2826 17.1364 23.2152 17.2516 23.1722 17.3768C23.1291 17.5019 23.1112 17.6343 23.1196 17.7664C23.1279 17.8985 23.1623 18.0276 23.2208 18.1462C23.2793 18.2649 23.3606 18.3707 23.4602 18.4576C23.6419 18.6184 23.8759 18.7072 24.1182 18.7076C24.2597 18.7074 24.3996 18.677 24.5286 18.6184C24.6575 18.5597 24.7725 18.4742 24.8659 18.3676C25.4816 17.69 25.8997 16.8557 26.0745 15.9559C26.2493 15.0561 26.1741 14.1254 25.8571 13.2656C25.5402 12.4057 24.9936 11.6498 24.2773 11.0805C23.5609 10.5112 22.7023 10.1504 21.7952 10.0376Z" fill="#050F67"/>
</svg>
